<svg xmlns="http://www.w3.org/2000/svg" viewBox="0 0 1400 1200" width="1400" height="1200" role="img" aria-label="trail">
  <rect width="1400" height="1200" fill="#fff9ed"/>
  <rect x="120" y="300" width="1160" height="6" rx="3" fill="#d8dfd8"/>
  <g transform="rotate(-4 220 560)">
    <rect x="160" y="330" width="230" height="330" rx="10" fill="#ffffff" stroke="#1c5789" stroke-width="6"/>
    <rect x="186" y="372" width="150" height="16" rx="8" fill="#16456b"/>
    <rect x="186" y="416" width="176" height="12" rx="6" fill="#d8dfd8"/>
    <rect x="186" y="446" width="140" height="12" rx="6" fill="#d8dfd8"/>
    <circle cx="275" cy="330" r="15" fill="#1c5789"/>
  </g>
  <g transform="rotate(3 520 560)">
    <rect x="460" y="330" width="230" height="330" rx="10" fill="#ffffff" stroke="#1c5789" stroke-width="6"/>
    <rect x="486" y="372" width="150" height="16" rx="8" fill="#16456b"/>
    <rect x="486" y="416" width="176" height="12" rx="6" fill="#d8dfd8"/>
    <rect x="486" y="446" width="140" height="12" rx="6" fill="#d8dfd8"/>
    <circle cx="575" cy="330" r="15" fill="#a33b12"/>
  </g>
  <g transform="rotate(-2 820 560)">
    <rect x="760" y="330" width="230" height="330" rx="10" fill="#ffffff" stroke="#1c5789" stroke-width="6"/>
    <rect x="786" y="372" width="150" height="16" rx="8" fill="#16456b"/>
    <rect x="786" y="416" width="176" height="12" rx="6" fill="#d8dfd8"/>
    <rect x="786" y="446" width="140" height="12" rx="6" fill="#d8dfd8"/>
    <circle cx="875" cy="330" r="15" fill="#1c5789"/>
  </g>
  <g transform="rotate(5 1120 560)">
    <rect x="1060" y="330" width="230" height="330" rx="10" fill="#ffffff" stroke="#1c5789" stroke-width="6"/>
    <rect x="1086" y="372" width="150" height="16" rx="8" fill="#16456b"/>
    <rect x="1086" y="416" width="176" height="12" rx="6" fill="#d8dfd8"/>
    <rect x="1086" y="446" width="140" height="12" rx="6" fill="#d8dfd8"/>
    <circle cx="1175" cy="330" r="15" fill="#1c5789"/>
  </g>
</svg>
